<svg width="158" height="32" viewBox="0 0 158 32" fill="none" xmlns="http://www.w3.org/2000/svg">
<path fill-rule="evenodd" clip-rule="evenodd" d="M48.07 8.455V23H45.435V8.455H48.07ZM53.17 16.608V23H50.598V12.09H53.056V13.945H53.183C53.681 12.73 54.803 11.949 56.436 11.949C58.688 11.949 60.179 13.44 60.172 16.054V23H57.601V16.452C57.601 14.996 56.806 14.122 55.477 14.122C54.121 14.122 53.169 15.032 53.169 16.608H53.17ZM68.17 12.091V14.08H65.904V23H63.333V14.08H61.72V12.09H63.332V11.061C63.332 8.859 64.845 7.773 66.741 7.773C67.629 7.773 68.361 7.957 68.694 8.071L68.175 10.06C67.8651 9.96077 67.5423 9.90787 67.217 9.903C66.257 9.903 65.903 10.379 65.903 11.232V12.091H68.168H68.17ZM74.412 23.213C71.117 23.213 69.107 21.033 69.107 17.609C69.107 14.243 71.145 11.949 74.27 11.949C76.955 11.949 79.256 13.632 79.256 17.46V18.249H71.656C71.678 20.116 72.779 21.21 74.441 21.21C75.556 21.21 76.401 20.727 76.749 19.804L79.157 20.074C78.702 21.97 76.947 23.214 74.412 23.214V23.213ZM71.664 16.516H76.792C76.785 15.031 75.79 13.952 74.306 13.952C72.772 13.952 71.749 15.124 71.664 16.516ZM81.23 23V12.09H83.723V13.91H83.836C84.234 12.645 85.271 11.935 86.528 11.935C87.118 11.935 87.608 12.091 87.991 12.332L87.196 14.463C86.8787 14.3118 86.5314 14.2342 86.18 14.236C84.838 14.236 83.8 15.209 83.8 16.586V23H81.23ZM89.284 23V12.09H91.741V13.945H91.869C92.324 12.702 93.417 11.949 94.881 11.949C96.351 11.949 97.409 12.709 97.828 13.945H97.942C98.425 12.73 99.632 11.949 101.216 11.949C103.219 11.949 104.625 13.241 104.625 15.678V23H102.047V16.075C102.047 14.725 101.223 14.115 100.186 14.115C98.943 14.115 98.211 14.967 98.211 16.196V23H95.691V15.969C95.691 14.847 94.944 14.115 93.858 14.115C92.75 14.115 91.855 15.025 91.855 16.366V23H89.284ZM111.876 23.213C108.581 23.213 106.571 21.033 106.571 17.609C106.571 14.243 108.609 11.949 111.734 11.949C114.419 11.949 116.72 13.632 116.72 17.46V18.249H109.12C109.142 20.116 110.243 21.21 111.905 21.21C113.02 21.21 113.865 20.727 114.213 19.804L116.621 20.074C116.166 21.97 114.411 23.214 111.876 23.214V23.213ZM109.128 16.516H114.256C114.249 15.031 113.254 13.952 111.77 13.952C110.236 13.952 109.213 15.124 109.128 16.516ZM128.547 23H126.018V21.281H125.869C125.464 22.077 124.619 23.191 122.744 23.191C120.174 23.191 118.248 21.153 118.248 17.56C118.248 13.923 120.23 11.949 122.751 11.949C124.676 11.949 125.478 13.107 125.869 13.895H125.976V8.455H128.546V23H128.547ZM126.025 17.545C126.025 15.429 125.116 14.058 123.461 14.058C121.75 14.058 120.869 15.514 120.869 17.545C120.869 19.591 121.764 21.082 123.461 21.082C125.102 21.082 126.025 19.662 126.025 17.545ZM130.97 23V12.09H133.54V23H130.97ZM132.262 10.628C131.46 10.628 130.771 10.018 130.771 9.236C130.771 8.447 131.46 7.836 132.262 7.836C133.058 7.836 133.747 8.447 133.747 9.236C133.747 10.017 133.057 10.628 132.262 10.628ZM140.742 23.213C137.482 23.213 135.515 20.891 135.515 17.588C135.515 14.258 137.532 11.948 140.728 11.948C143.392 11.948 145.238 13.504 145.423 15.869H142.958C142.767 14.819 142 14.023 140.764 14.023C139.18 14.023 138.122 15.343 138.122 17.545C138.122 19.775 139.159 21.118 140.764 21.118C141.894 21.118 142.738 20.443 142.958 19.271H145.423C145.231 21.587 143.484 23.213 140.743 23.213H140.742ZM150.459 23.22C148.378 23.22 146.809 22.084 146.809 19.939C146.809 17.482 148.832 16.849 150.949 16.622L151.14 16.601C152.923 16.409 153.655 16.331 153.648 15.614C153.64 14.534 153.008 13.916 151.801 13.916C150.544 13.916 149.819 14.556 149.564 15.301L147.164 14.961C147.731 12.971 149.479 11.949 151.822 11.949C153.854 11.949 156.219 12.815 156.219 15.699V23H153.747V21.501H153.662C153.193 22.418 152.17 23.221 150.459 23.221V23.22ZM151.126 21.331C152.675 21.331 153.655 20.301 153.655 19.087V17.8C153.321 18.07 151.971 18.24 151.297 18.333C150.147 18.496 149.287 18.908 149.287 19.895C149.287 20.84 150.054 21.33 151.127 21.33L151.126 21.331Z" fill="#112950"/>
<path d="M29 0H3C1.34315 0 0 1.34315 0 3V29C0 30.6569 1.34315 32 3 32H29C30.6569 32 32 30.6569 32 29V3C32 1.34315 30.6569 0 29 0Z" fill="#2E85FF"/>
<path fill-rule="evenodd" clip-rule="evenodd" d="M14 14V9H18V14H23V18H18V23H14V18H9V14H14Z" fill="white"/>
</svg>
